<?xml version="1.0" standalone="no"?>
<!DOCTYPE svg PUBLIC "-//W3C//DTD SVG 20010904//EN"
 "http://www.w3.org/TR/2001/REC-SVG-20010904/DTD/svg10.dtd">
<svg version="1.0" xmlns="http://www.w3.org/2000/svg"
 width="400.000000pt" height="400.000000pt" viewBox="0 0 400.000000 400.000000"
 preserveAspectRatio="xMidYMid meet">
<metadata>
Created by potrace 1.11, written by Peter Selinger 2001-2013
</metadata>
<g transform="translate(0.000000,400.000000) scale(0.100000,-0.100000)"
fill="#000000" stroke="none">
<path d="M1905 3499 c-182 -20 -382 -104 -531 -223 -177 -142 -299 -334 -356
-563 -32 -126 -32 -350 0 -476 64 -255 219 -478 430 -616 l79 -52 -9 -62 c-20
-133 5 -221 81 -290 l40 -36 -24 -43 c-41 -71 -28 -154 31 -204 22 -18 23 -24
14 -48 -15 -40 -12 -113 6 -152 17 -35 69 -74 98 -74 9 0 21 -12 27 -27 6 -16
24 -43 42 -61 114 -118 419 -84 468 53 10 26 20 35 44 39 36 7 79 47 94 89 18
46 13 101 -14 151 -19 36 -21 46 -10 46 24 0 55 61 55 105 0 52 -36 113 -80
139 -33 20 -55 21 -352 26 l-316 5 -44 30 c-83 59 -99 115 -77 272 12 90 21
77 -112 163 -151 98 -290 272 -359 452 -88 229 -77 507 31 736 96 206 280 384
489 473 207 88 449 98 670 27 467 -149 749 -631 644 -1098 -57 -252 -237 -496
-460 -621 -29 -17 -57 -36 -63 -43 -8 -9 -7 -43 1 -117 13 -119 10 -137 -32
-201 -32 -48 -32 -73 2 -84 13 -4 28 2 45 18 60 56 83 153 65 275 l-9 62 81
53 c206 135 381 376 440 606 117 450 -102 936 -521 1154 -49 25 -115 55 -148
66 -139 47 -318 67 -460 51z m431 -2369 c15 -6 33 -18 40 -28 16 -20 18 -78 4
-87 -5 -3 -10 -17 -10 -30 0 -21 -2 -22 -37 -14 -21 5 -168 9 -327 9 -284 0
-290 0 -313 22 -41 38 -26 106 28 127 33 13 580 14 615 1z m8 -251 c31 -24 36
-81 10 -117 -15 -22 -17 -22 -301 -22 -326 0 -323 -1 -323 76 0 34 5 47 26 63
26 20 39 21 294 21 255 0 268 -1 294 -21z m-121 -235 c-3 -9 -29 -27 -57 -40
-87 -40 -220 -29 -278 23 -10 9 -18 20 -18 25 0 4 81 8 180 8 161 0 179 -2
173 -16z"/>
<path d="M2061 3222 c-6 -2 -11 -10 -11 -17 0 -9 17 -16 48 -19 115 -14 207
-37 276 -70 128 -62 247 -172 314 -288 15 -27 33 -48 40 -48 45 0 -41 143
-143 238 -120 113 -276 185 -434 200 -43 4 -84 6 -90 4z"/>
<path d="M2764 2649 c3 -24 9 -69 12 -99 8 -83 13 -100 29 -100 12 0 15 14 14
63 -1 95 -20 171 -43 175 -17 4 -18 0 -12 -39z"/>
<path d="M2197 2250 c-50 -40 -54 -125 -9 -203 19 -32 14 -39 -50 -59 -40 -12
-95 -2 -131 24 -17 13 -17 16 8 71 33 72 38 143 11 163 -32 23 -74 17 -107
-15 -25 -25 -29 -37 -29 -81 0 -35 7 -65 22 -91 24 -42 20 -52 -33 -90 l-27
-19 -26 55 c-37 81 -81 141 -116 155 -84 35 -162 -79 -115 -170 32 -61 129
-108 199 -94 35 6 35 6 51 -48 31 -105 47 -247 43 -403 -2 -127 -1 -150 12
-150 46 0 39 350 -12 538 -11 43 -19 79 -17 81 2 2 25 20 51 40 l48 36 37 -22
c49 -29 124 -30 182 -1 l44 22 33 -23 c32 -21 32 -23 15 -38 -26 -22 -59 -114
-83 -228 -26 -124 -32 -395 -8 -395 12 0 16 27 22 155 8 188 26 280 78 385
l38 80 64 0 c55 0 69 4 110 33 80 55 101 126 52 176 -39 39 -75 34 -129 -16
-25 -22 -60 -63 -77 -89 -26 -41 -34 -47 -50 -38 -29 16 -31 33 -8 72 27 46
36 142 18 177 -18 34 -74 39 -111 10z m81 -64 c3 -38 -21 -120 -38 -131 -12
-7 -36 41 -45 86 -8 43 25 92 59 87 17 -2 22 -11 24 -42z m-274 -2 c-1 -17
-11 -53 -24 -80 l-21 -49 -16 29 c-33 62 -8 141 41 134 16 -2 21 -10 20 -34z
m-292 -74 c14 -10 42 -51 63 -91 30 -57 35 -73 24 -80 -34 -22 -109 2 -148 47
-38 42 -41 87 -9 121 26 28 38 29 70 3z m816 -2 c32 -32 6 -82 -68 -131 -24
-16 -100 -24 -100 -10 0 15 64 105 92 128 32 27 57 32 76 13z"/>
</g>
</svg>
